<?xml version="1.0" encoding="utf-8"?>
<!-- Designed by Vexels.com - 2016 All Rights Reserved - https://vexels.com/terms-and-conditions/  -->

<svg version="1.1" id="Layer_1" xmlns="http://www.w3.org/2000/svg" xmlns:xlink="http://www.w3.org/1999/xlink" x="0px" y="0px"
	 width="1200px" height="1200px" viewBox="0 0 1200 1200" enable-background="new 0 0 1200 1200" xml:space="preserve">
<g>
	<g>
		<rect x="83.474" y="369.974" fill="#C0CCCD" width="39.681" height="447.354"/>
		<rect x="123.155" y="369.974" fill="#43BAC3" width="39.673" height="447.354"/>
	</g>
	<g>
		<rect x="216.728" y="455.363" fill="#F7A931" width="41.439" height="361.964"/>
		<rect x="258.167" y="455.363" fill="#F08430" width="37.915" height="361.964"/>
	</g>
	<g>
		<rect x="349.991" y="550.962" fill="#F08430" width="39.673" height="266.366"/>
		<rect x="389.664" y="550.962" fill="#EA6109" width="39.665" height="266.366"/>
	</g>
	<g>
		<rect x="483.222" y="480.983" fill="#E0197D" width="39.689" height="336.344"/>
		<rect x="522.911" y="480.983" fill="#DC448A" width="39.673" height="336.344"/>
	</g>
	<g>
		<rect x="616.493" y="520.84" fill="#E45226" width="39.657" height="296.488"/>
		<rect x="656.15" y="520.84" fill="#EC7851" width="39.689" height="296.488"/>
	</g>
	<g>
		<rect x="749.748" y="409.826" fill="#F3BE16" width="39.673" height="407.501"/>
		<rect x="789.421" y="409.826" fill="#C88934" width="39.673" height="407.501"/>
	</g>
	<g>
		<rect x="883.003" y="480.983" fill="#0E8EBD" width="39.665" height="336.344"/>
		<rect x="922.668" y="480.983" fill="#42B4D9" width="39.681" height="336.344"/>
	</g>
	<g>
		<rect x="1016.249" y="550.962" fill="#DF1A35" width="39.674" height="266.366"/>
		<rect x="1055.923" y="550.962" fill="#E33A61" width="39.68" height="266.366"/>
	</g>
	<rect x="50" y="810.749" fill="#32323D" width="1100" height="19.278"/>
</g>
</svg>
