<svg width="60" height="60" viewBox="0 0 60 60" fill="none" xmlns="http://www.w3.org/2000/svg">
<path d="M45 14.925V10H15V14.925L30 25.64L45 14.925ZM32.5 30V50L27.5 55V30L12.095 18.995C11.4473 18.5327 10.9193 17.9224 10.555 17.2149C10.1906 16.5075 10.0003 15.7233 10 14.9275V10C10 8.67392 10.5268 7.40215 11.4645 6.46447C12.4021 5.52678 13.6739 5 15 5H45C46.3261 5 47.5979 5.52678 48.5355 6.46447C49.4732 7.40215 50 8.67392 50 10V14.925C50.0001 15.7212 49.81 16.5059 49.4456 17.2138C49.0812 17.9217 48.553 18.5324 47.905 18.995L32.5 30Z" fill="#012C3F"/>
</svg>
