<svg width="436" height="436" viewBox="0 0 436 436" fill="none" xmlns="http://www.w3.org/2000/svg">
<g clip-path="url(#clip0_44_113)">
<mask id="mask0_44_113" style="mask-type:luminance" maskUnits="userSpaceOnUse" x="0" y="18" width="436" height="436">
<path d="M436 18H0V454H436V18Z" fill="white"/>
</mask>
<g mask="url(#mask0_44_113)">
<path d="M286.19 100.16V-138.253H395.408V131.413" stroke="#CCDDE2" stroke-width="4.82" stroke-miterlimit="10"/>
<path d="M297.047 21.4886V35.4406H310.999V9.83862H297.047V21.4886ZM299.34 12.1233H308.688V21.4886H299.34V12.1233ZM299.34 23.7775H308.688V33.1516H299.34V23.7775Z" fill="#D7E8F0"/>
<path d="M321.646 21.4886V35.4406H335.598V9.83862H321.646V21.4886ZM323.948 12.132H333.313V21.4886H323.948V12.132ZM323.948 23.7863H333.313V33.1516H323.948V23.7863Z" fill="#D7E8F0"/>
<path d="M345.574 21.4886V35.4406H359.526V9.83862H345.574V21.4886ZM347.867 12.1233H357.232V21.4886H347.867V12.1233ZM347.867 23.7775H357.232V33.1516H347.867V23.7775Z" fill="#D7E8F0"/>
<path d="M368.097 21.4886V35.4406H382.049V9.83862H368.097V21.4886ZM370.386 12.1233H379.756V21.4886H370.386V12.1233ZM370.386 23.7775H379.756V33.1516H370.386V23.7775Z" fill="#D7E8F0"/>
<path d="M281.373 314.972C277.688 318.687 274.039 322.82 270.15 326.574C269.08 327.618 267.986 328.626 266.867 329.6C265.624 330.681 264.342 331.71 263.03 332.652C262.935 332.377 262.818 332.111 262.681 331.854C260.479 327.494 254.506 324.734 253.765 319.79C253.089 315.173 257.253 310.931 256.573 306.405C255.806 301.286 249.51 298.247 248.346 293.246C247.604 290.142 248.267 286.563 247.997 283.362C247.688 279.784 247.082 276.237 246.187 272.759C246.623 272.728 247.059 272.715 247.495 272.702C256.346 272.554 265.057 277.524 267.922 284.509C270.228 290.177 269.056 296.678 272.121 301.975C272.305 302.318 272.513 302.647 272.744 302.96C273.15 303.516 273.587 304.049 274.052 304.556L275.024 305.568C275.186 305.729 275.364 305.877 275.526 306.052C275.687 306.226 275.862 306.379 276.023 306.553C277.549 308.014 279.105 309.483 280.117 311.227C280.208 311.379 280.29 311.536 280.361 311.698C280.453 311.86 280.535 312.028 280.605 312.199C280.697 312.387 280.767 312.566 280.832 312.74C280.897 312.914 280.98 313.176 281.05 313.359C281.146 313.686 281.237 313.996 281.307 314.318C281.307 314.401 281.307 314.471 281.333 314.536C281.359 314.602 281.333 314.589 281.333 314.619C281.339 314.645 281.339 314.672 281.333 314.698C281.333 314.754 281.333 314.794 281.359 314.833V314.859C281.353 314.897 281.358 314.937 281.373 314.972Z" fill="white"/>
<path d="M281.429 315.243H281.442L281.429 315.256V315.243Z" fill="white"/>
<path d="M281.455 315.218C281.564 315.122 281.656 315.056 281.765 314.96C281.673 315.043 281.564 315.135 281.469 315.231C281.469 315.231 281.469 315.231 281.442 315.231L281.455 315.218Z" fill="white"/>
<path d="M312.442 293.753C312.348 295.273 312.348 296.797 312.442 298.317C309.782 298.967 307.162 299.682 304.594 300.545C302.998 301.073 301.433 301.653 299.868 302.316C295.525 304.077 291.436 306.408 287.708 309.248C288.52 307.863 289.092 306.35 289.399 304.775C289.399 304.709 289.425 304.639 289.439 304.561C290.114 301.295 290.167 297.864 291.706 294.742C294.57 288.987 302.946 284.815 311.714 284.544H311.875C312.673 284.544 313.484 284.544 314.295 284.583C313.387 287.574 312.766 290.644 312.442 293.753Z" fill="white"/>
<path d="M308.457 289.55L304.568 300.528C302.972 301.056 301.407 301.635 299.842 302.298C302.34 297.441 305.2 293.051 308.457 289.55Z" fill="white"/>
<path d="M281.473 315.26C281.473 315.173 281.459 315.086 281.434 315.003C281.46 315.164 281.473 315.26 281.473 315.26Z" fill="white"/>
<path d="M251.899 278.515C260.619 289.821 266.409 309.035 270.15 326.576C269.08 327.619 267.986 328.627 266.867 329.601L251.899 278.515Z" fill="white"/>
<path d="M282.689 297.576C280.945 302.9 280.88 308.276 281.085 311.681C281.138 312.781 281.254 313.877 281.434 314.964L282.689 297.576Z" fill="white"/>
<path d="M281.373 314.972C277.688 318.687 274.039 322.82 270.15 326.574C269.08 327.618 267.986 328.626 266.867 329.6C265.624 330.681 264.342 331.71 263.03 332.652C262.935 332.377 262.818 332.111 262.681 331.854C260.479 327.494 254.506 324.734 253.765 319.79C253.089 315.173 257.253 310.931 256.573 306.405C255.806 301.286 249.51 298.247 248.346 293.246C247.604 290.142 248.267 286.563 247.997 283.362C247.688 279.784 247.082 276.237 246.187 272.759C246.623 272.728 247.059 272.715 247.495 272.702C256.346 272.554 265.057 277.524 267.922 284.509C270.228 290.177 269.056 296.678 272.121 301.975C272.305 302.318 272.513 302.647 272.744 302.96C273.15 303.516 273.587 304.049 274.052 304.556L275.024 305.568C275.186 305.729 275.364 305.877 275.526 306.052C275.687 306.226 275.862 306.379 276.023 306.553C277.549 308.014 279.105 309.483 280.117 311.227C280.208 311.379 280.29 311.536 280.361 311.698C280.453 311.86 280.535 312.028 280.605 312.199C280.697 312.387 280.767 312.566 280.832 312.74C280.897 312.914 280.98 313.176 281.05 313.359C281.146 313.686 281.237 313.996 281.307 314.318C281.307 314.401 281.307 314.471 281.333 314.536C281.359 314.602 281.333 314.589 281.333 314.619C281.339 314.645 281.339 314.672 281.333 314.698C281.333 314.754 281.333 314.794 281.359 314.833V314.859C281.353 314.897 281.358 314.937 281.373 314.972Z" stroke="#CCDDE2" stroke-width="4.65" stroke-miterlimit="10"/>
<path d="M289.399 304.788C289.091 306.359 288.519 307.867 287.708 309.248" stroke="#CCDDE2" stroke-width="4.65" stroke-miterlimit="10"/>
<path d="M312.429 298.317C312.335 296.797 312.335 295.272 312.429 293.752C312.754 290.648 313.375 287.582 314.282 284.596C313.471 284.543 312.66 284.543 311.862 284.556H311.701C302.933 284.827 294.557 288.999 291.693 294.755C290.154 297.876 290.101 301.295 289.426 304.573" stroke="#CCDDE2" stroke-width="4.65" stroke-miterlimit="10"/>
<path d="M289.404 304.793C289.404 304.723 289.43 304.657 289.443 304.575" stroke="#CCDDE2" stroke-width="4.65" stroke-miterlimit="10"/>
<path d="M289.439 304.556C289.439 304.634 289.412 304.704 289.399 304.769C289.092 306.347 288.52 307.861 287.708 309.247" stroke="#CCDDE2" stroke-width="4.65" stroke-miterlimit="10"/>
<path d="M289.404 304.793C289.404 304.723 289.43 304.657 289.443 304.575" stroke="#CCDDE2" stroke-width="4.65" stroke-miterlimit="10"/>
<path d="M281.429 315.178V315.244" stroke="#CCDDE2" stroke-width="4.65" stroke-miterlimit="10"/>
<path d="M308.457 289.55C305.2 293.038 302.353 297.441 299.842 302.316" stroke="#CCDDE2" stroke-width="4.65" stroke-miterlimit="10"/>
<path d="M281.473 315.26C281.473 315.173 281.459 315.086 281.434 315.003C281.46 315.164 281.473 315.26 281.473 315.26Z" stroke="#CCDDE2" stroke-width="4.65" stroke-miterlimit="10"/>
<path d="M251.899 278.515C260.619 289.821 266.409 309.035 270.15 326.576" stroke="#CCDDE2" stroke-width="4.65" stroke-miterlimit="10"/>
<path d="M282.689 297.576C280.945 302.9 280.88 308.276 281.085 311.681C281.138 312.781 281.254 313.877 281.434 314.964" stroke="#CCDDE2" stroke-width="4.65" stroke-miterlimit="10"/>
<path d="M375.431 172.073C380.981 192.862 386.706 215.259 386.235 236.627C385.734 259.147 374.267 278.047 353.722 287.639C340.35 293.879 325.975 295.025 312.429 298.308C309.769 298.958 307.149 299.673 304.581 300.536C302.985 301.064 301.42 301.644 299.855 302.306C295.516 304.072 291.431 306.406 287.708 309.248" stroke="#CCDDE2" stroke-width="4.65" stroke-miterlimit="10"/>
<path d="M153.59 53.7519C153.59 53.7519 127.709 47.8441 106.166 55.1253C103.482 56.0095 100.882 57.13 98.3965 58.4738C86.1885 65.0793 76.9758 77.4922 77.6516 100.038C78.0135 111.81 77.3246 123.42 75.0051 134.687C74.2464 138.343 73.309 141.962 72.1929 145.543C69.4587 154.299 65.5125 162.629 60.4688 170.29C44.4066 194.645 46.8395 219.96 64.6544 243.434C65.5875 244.663 66.5467 245.88 67.532 247.07" stroke="#CCDDE2" stroke-width="4.65" stroke-miterlimit="10"/>
<path d="M342.168 42.9661H182.872C164.499 42.9661 149.605 57.8602 149.605 76.2331V226.365C149.605 244.738 164.499 259.632 182.872 259.632H342.168C360.541 259.632 375.435 244.738 375.435 226.365V76.2331C375.435 57.8602 360.541 42.9661 342.168 42.9661Z" fill="#3FBDF1"/>
<path d="M339.958 39.8H181.786C162.192 39.8 146.308 55.6838 146.308 75.2773V224.154C146.308 243.747 162.192 259.631 181.786 259.631H339.958C359.551 259.631 375.435 243.747 375.435 224.154V75.2773C375.435 55.6838 359.551 39.8 339.958 39.8Z" stroke="black" stroke-width="4.65" stroke-miterlimit="10"/>
<path d="M337.726 47.2256H187.314C168.942 47.2256 154.047 62.1197 154.047 80.4923V222.101C154.047 240.474 168.942 255.368 187.314 255.368H337.726C356.098 255.368 370.992 240.474 370.992 222.101V80.4923C370.992 62.1197 356.098 47.2256 337.726 47.2256Z" fill="#3FBDF1"/>
<path d="M345.36 58.1512H299.933C293.759 58.1512 288.75 63.5402 288.75 70.1718V175.318C288.75 181.962 293.759 187.364 299.933 187.364H345.36C351.547 187.364 356.574 181.962 356.574 175.318V70.1718C356.574 63.5402 351.547 58.1512 345.36 58.1512ZM353.356 175.775C353.348 177.985 352.466 180.103 350.903 181.666C349.339 183.228 347.222 184.109 345.011 184.116H300.312C298.099 184.109 295.978 183.227 294.412 181.664C292.845 180.1 291.96 177.98 291.95 175.767V69.7402C291.96 67.5266 292.845 65.4067 294.412 63.8428C295.978 62.2789 298.099 61.3976 300.312 61.3907H345.011C347.223 61.3976 349.342 62.2798 350.906 63.8441C352.469 65.4085 353.351 67.5283 353.356 69.7402V175.775Z" fill="#D7E8F0"/>
<path d="M344.763 199.703H299.336C293.166 199.703 288.152 205.092 288.152 211.724V227.716C288.152 234.365 293.166 239.767 299.336 239.767H344.763C350.949 239.767 355.977 234.365 355.977 227.716V211.724C355.977 205.092 350.949 199.703 344.763 199.703ZM352.759 228.178C352.753 230.39 351.872 232.509 350.308 234.072C348.745 235.636 346.625 236.518 344.414 236.523H299.715C297.502 236.518 295.381 235.637 293.814 234.074C292.248 232.51 291.363 230.391 291.353 228.178V211.292C291.363 209.078 292.248 206.959 293.814 205.395C295.38 203.831 297.501 202.949 299.715 202.942H344.414C346.626 202.949 348.745 203.831 350.309 205.396C351.872 206.96 352.753 209.08 352.759 211.292V228.178Z" fill="#D7E8F0"/>
<path d="M242.961 211.328L176.393 210.351C175.676 210.339 174.994 210.044 174.496 209.53C173.997 209.016 173.722 208.324 173.733 207.609C173.732 207.36 173.767 207.114 173.838 206.876C174.009 206.312 174.359 205.82 174.835 205.473C175.311 205.125 175.886 204.941 176.475 204.949L243.044 205.917C242.546 206.69 242.267 207.583 242.237 208.502C242.201 209.494 242.453 210.475 242.961 211.328Z" fill="#3FBDF1"/>
<path d="M259.102 209.583C258.933 210.145 258.587 210.638 258.116 210.988C257.645 211.339 257.073 211.528 256.486 211.527L251.69 211.458C252.204 210.654 252.484 209.723 252.499 208.768C252.513 207.814 252.262 206.875 251.773 206.056L256.569 206.125C257.284 206.14 257.964 206.437 258.462 206.95C258.96 207.463 259.235 208.153 259.228 208.868C259.22 209.111 259.177 209.352 259.102 209.583Z" fill="#D7E8F0"/>
<path d="M258.945 220.304C258.776 220.865 258.43 221.357 257.959 221.705C257.487 222.053 256.915 222.239 256.329 222.235L190.166 221.267C190.784 220.53 191.18 219.633 191.309 218.68C191.438 217.727 191.294 216.757 190.894 215.883L256.39 216.816C257.105 216.83 257.786 217.126 258.285 217.639C258.783 218.153 259.058 218.843 259.049 219.558C259.052 219.81 259.016 220.062 258.945 220.304Z" fill="#D7E8F0"/>
<path d="M182.204 221.145L176.24 221.058C175.525 221.048 174.844 220.755 174.345 220.243C173.845 219.732 173.569 219.044 173.576 218.329C173.579 218.077 173.616 217.826 173.685 217.583C173.852 217.022 174.198 216.531 174.671 216.185C175.143 215.838 175.715 215.656 176.301 215.665L181.616 215.748C181.305 216.393 181.13 217.095 181.101 217.81C181.057 219.018 181.448 220.202 182.204 221.145Z" fill="#3FBDF1"/>
<path d="M238.252 232.809L176.484 231.91C175.769 231.895 175.09 231.598 174.592 231.085C174.094 230.571 173.818 229.883 173.824 229.168C173.826 228.925 173.864 228.684 173.938 228.453C174.105 227.89 174.451 227.396 174.922 227.045C175.394 226.695 175.966 226.507 176.554 226.508L238.23 227.415C237.727 228.225 237.46 229.159 237.46 230.112C237.46 231.065 237.727 231.999 238.23 232.809H238.252Z" fill="#3FBDF1"/>
<path d="M259.202 231.147C259.035 231.709 258.688 232.201 258.217 232.548C257.744 232.896 257.172 233.081 256.586 233.074L246.881 232.948L238.252 232.83C237.749 232.021 237.482 231.087 237.482 230.133C237.482 229.18 237.749 228.246 238.252 227.437L247.042 227.567L256.634 227.707C257.348 227.719 258.028 228.012 258.527 228.523C259.025 229.035 259.301 229.722 259.294 230.436C259.297 230.676 259.266 230.916 259.202 231.147Z" fill="#D7E8F0"/>
<path d="M251.664 211.458C250.993 212.506 249.965 213.275 248.771 213.622C247.576 213.969 246.297 213.871 245.169 213.346C244.041 212.821 243.143 211.905 242.64 210.767C242.137 209.629 242.064 208.348 242.434 207.16C242.805 205.973 243.594 204.96 244.654 204.31C245.715 203.661 246.975 203.418 248.201 203.627C249.427 203.836 250.536 204.483 251.321 205.448C252.106 206.413 252.514 207.63 252.47 208.873C252.438 209.791 252.16 210.684 251.664 211.458Z" fill="white"/>
<g opacity="0.72">
<path opacity="0.72" d="M249.732 208.318C249.617 208.932 249.327 209.499 248.899 209.953C248.691 210.184 248.463 210.397 248.219 210.59C248.084 210.686 247.382 211.248 247.247 211.178C246.323 210.712 245.158 209.539 245.015 208.392C244.991 208.213 244.991 208.031 245.015 207.852C245.066 207.543 245.226 207.263 245.466 207.062C245.706 206.861 246.01 206.753 246.323 206.757C246.527 206.765 246.728 206.821 246.907 206.92C247.087 207.019 247.24 207.159 247.356 207.329C247.487 207.171 247.651 207.045 247.838 206.959C248.025 206.874 248.228 206.832 248.433 206.836C248.617 206.842 248.799 206.886 248.966 206.965C249.133 207.044 249.282 207.157 249.403 207.296C249.525 207.435 249.617 207.597 249.674 207.773C249.73 207.949 249.75 208.134 249.732 208.318Z" fill="#3FBDF1"/>
</g>
<path d="M190.157 221.268C189.669 221.853 189.055 222.322 188.362 222.64C187.669 222.958 186.914 223.117 186.152 223.105C185.389 223.094 184.639 222.911 183.956 222.573C183.273 222.233 182.675 221.746 182.204 221.146C181.452 220.201 181.063 219.017 181.11 217.811C181.139 217.095 181.314 216.393 181.625 215.748C182.062 214.859 182.748 214.115 183.599 213.607C184.45 213.098 185.43 212.847 186.421 212.884C187.375 212.914 188.301 213.213 189.093 213.745C189.885 214.279 190.511 215.024 190.898 215.897C191.298 216.771 191.442 217.741 191.313 218.694C191.184 219.647 190.788 220.544 190.17 221.281L190.157 221.268Z" fill="white"/>
<g opacity="0.72">
<path opacity="0.72" d="M188.609 217.619C188.491 218.231 188.201 218.797 187.772 219.25C187.567 219.484 187.339 219.697 187.092 219.886C186.961 219.982 186.255 220.549 186.124 220.475C185.2 220.013 184.036 218.84 183.887 217.689C183.863 217.509 183.863 217.327 183.887 217.148C183.932 216.893 184.052 216.656 184.231 216.469C184.411 216.282 184.642 216.153 184.895 216.097C185.148 216.042 185.412 216.062 185.654 216.157C185.895 216.252 186.103 216.416 186.25 216.629C186.424 216.389 186.673 216.214 186.958 216.134C187.243 216.054 187.547 216.073 187.82 216.188C188.093 216.303 188.318 216.507 188.461 216.767C188.602 217.027 188.652 217.327 188.601 217.619H188.609Z" fill="#3FBDF1"/>
</g>
<path d="M246.881 232.948C246.265 233.877 245.363 234.581 244.311 234.952C243.26 235.323 242.116 235.341 241.053 235.003C239.99 234.666 239.066 233.99 238.422 233.081C237.777 232.171 237.446 231.075 237.48 229.961C237.513 229.068 237.776 228.198 238.243 227.437C238.602 226.863 239.071 226.366 239.623 225.974C240.175 225.583 240.799 225.305 241.459 225.156C242.119 225.007 242.802 224.99 243.468 225.107C244.135 225.223 244.772 225.471 245.342 225.834C245.913 226.198 246.405 226.672 246.792 227.227C247.178 227.783 247.451 228.409 247.594 229.07C247.737 229.732 247.747 230.415 247.625 231.08C247.503 231.746 247.249 232.38 246.881 232.948Z" fill="white"/>
<g opacity="0.72">
<path opacity="0.72" d="M244.984 229.748C244.867 230.362 244.576 230.929 244.147 231.383C243.942 231.617 243.714 231.83 243.467 232.019C243.336 232.115 242.63 232.678 242.499 232.608C241.574 232.141 240.41 230.973 240.262 229.822C240.238 229.642 240.238 229.46 240.262 229.281C240.307 229.026 240.427 228.789 240.606 228.602C240.786 228.415 241.017 228.286 241.27 228.23C241.523 228.175 241.787 228.196 242.028 228.29C242.27 228.385 242.477 228.549 242.625 228.762C242.798 228.523 243.047 228.349 243.332 228.269C243.616 228.189 243.919 228.207 244.192 228.322C244.464 228.436 244.69 228.639 244.832 228.898C244.974 229.157 245.025 229.457 244.975 229.748H244.984Z" fill="#3FBDF1"/>
</g>
<path d="M173.223 70.9125L173.336 86.6914C173.365 89.4434 174.457 92.0782 176.384 94.0437C178.311 96.0091 180.923 97.1541 183.674 97.2382L199.291 97.5085C200.634 97.529 201.968 97.2796 203.213 96.7752C204.457 96.2703 205.588 95.5208 206.538 94.5708C207.487 93.6212 208.236 92.4902 208.74 91.245C209.244 90.0002 209.493 88.6665 209.472 87.3236L209.354 71.5447C209.327 68.7927 208.236 66.1584 206.31 64.1929C204.384 62.2279 201.772 61.0843 199.021 61.0022L183.403 60.7275C182.061 60.7069 180.727 60.9563 179.482 61.4609C178.237 61.9654 177.107 62.7149 176.157 63.6649C175.208 64.615 174.458 65.7459 173.954 66.9907C173.45 68.2359 173.201 69.5697 173.223 70.9125Z" fill="white"/>
<path d="M175.625 74.8723L175.708 86.2955C175.734 88.6852 176.682 90.9725 178.356 92.6785C180.029 94.385 182.297 95.3787 184.685 95.4515L198.249 95.6869C199.415 95.7048 200.574 95.4881 201.655 95.0499C202.736 94.6122 203.718 93.9617 204.544 93.1372C205.369 92.3127 206.02 91.3308 206.459 90.25C206.899 89.1692 207.117 88.0116 207.1 86.8448V86.0731C205.195 82.1753 201.484 76.3416 197.508 79.8296C191.801 84.8436 189.189 81.0286 185.862 76.1062C183.085 71.986 178.86 68.9776 175.625 74.8723Z" fill="#3FBDF1"/>
<path d="M201.144 73.2944C202.867 72.1499 203.311 69.7877 202.136 68.0188C200.961 66.25 198.611 65.7438 196.888 66.8883C195.165 68.0332 194.722 70.395 195.897 72.1639C197.072 73.9327 199.422 74.4389 201.144 73.2944Z" fill="#3FBDF1"/>
<path d="M263.946 77.2965C261.505 77.2956 259.124 78.0503 257.129 79.4573C255.135 80.8638 253.624 82.8537 252.806 85.1532C251.988 87.4526 251.901 89.9492 252.558 92.2997C253.216 94.6501 254.584 96.7399 256.477 98.2811L225.521 161.375C225.33 161.345 225.138 161.326 224.946 161.318C224.452 161.325 223.961 161.401 223.489 161.545L203.35 136.523C204.249 135.282 204.759 133.801 204.813 132.27C204.867 130.738 204.464 129.225 203.655 127.924C202.846 126.623 201.667 125.592 200.27 124.963C198.872 124.334 197.319 124.136 195.809 124.394C194.298 124.651 192.899 125.353 191.788 126.409C190.678 127.466 189.908 128.829 189.575 130.325C189.243 131.82 189.364 133.382 189.923 134.808C190.481 136.235 191.452 137.464 192.712 138.336L178.599 178.501C177.368 178.574 176.201 179.072 175.296 179.908C174.39 180.745 173.802 181.869 173.632 183.09C173.462 184.311 173.719 185.554 174.361 186.606C175.003 187.659 175.989 188.456 177.152 188.864C178.316 189.272 179.584 189.264 180.743 188.843C181.901 188.421 182.878 187.611 183.507 186.552C184.136 185.491 184.379 184.246 184.193 183.027C184.009 181.808 183.407 180.691 182.492 179.865L196.606 139.697C196.78 139.697 196.95 139.723 197.124 139.723C198.174 139.723 199.212 139.509 200.176 139.095L220.311 164.108C219.887 164.878 219.662 165.741 219.657 166.62C219.636 167.332 219.759 168.041 220.017 168.705C220.276 169.369 220.665 169.974 221.161 170.485C221.658 170.996 222.252 171.402 222.909 171.68C223.565 171.957 224.27 172.1 224.983 172.1C225.695 172.1 226.4 171.957 227.057 171.68C227.713 171.402 228.307 170.996 228.804 170.485C229.3 169.974 229.689 169.369 229.947 168.705C230.206 168.041 230.329 167.332 230.308 166.62C230.305 165.435 229.902 164.286 229.166 163.358L260.122 100.265C261.749 100.838 263.482 101.048 265.199 100.88C266.916 100.712 268.575 100.17 270.06 99.2927C271.546 98.415 272.821 97.223 273.796 95.8003C274.772 94.3776 275.424 92.7588 275.707 91.057C275.991 89.3553 275.898 87.6122 275.436 85.9502C274.974 84.2881 274.154 82.7473 273.033 81.4363C271.912 80.1248 270.518 79.0749 268.948 78.3594C267.378 77.6444 265.671 77.2816 263.946 77.2965Z" fill="#D7E8F0"/>
<path d="M301.354 100.033H342.774" stroke="white" stroke-width="4.65" stroke-miterlimit="10"/>
<path d="M301.354 106.43H342.774" stroke="white" stroke-width="4.65" stroke-miterlimit="10"/>
<path d="M301.354 112.821H342.774" stroke="white" stroke-width="4.65" stroke-miterlimit="10"/>
<path d="M301.354 119.214H342.774" stroke="white" stroke-width="4.65" stroke-miterlimit="10"/>
<path d="M301.354 125.609H342.774" stroke="white" stroke-width="4.65" stroke-miterlimit="10"/>
<path d="M301.354 162.948H342.774" stroke="white" stroke-width="4.65" stroke-miterlimit="10"/>
<path d="M301.354 168.591H342.774" stroke="white" stroke-width="4.65" stroke-miterlimit="10"/>
<path d="M334.072 211.793C334.488 212.138 334.822 212.572 335.048 213.064C335.274 213.555 335.388 214.091 335.38 214.631L335.284 227.419C335.28 227.902 335.182 228.379 334.994 228.823C334.805 229.268 334.531 229.671 334.187 230.009C333.843 230.347 333.435 230.614 332.987 230.795C332.539 230.975 332.061 231.065 331.578 231.06L312.394 230.894C311.421 230.885 310.492 230.49 309.81 229.796C309.128 229.102 308.749 228.166 308.758 227.192L308.871 214.396C308.908 213.432 309.311 212.518 309.999 211.843C310.687 211.166 311.608 210.779 312.573 210.76L331.757 210.925C332.606 210.933 333.427 211.24 334.072 211.793Z" fill="white"/>
<path d="M331.36 214.131L322.413 221.818C322.299 221.915 322.154 221.968 322.003 221.968C321.853 221.968 321.708 221.915 321.594 221.818L312.486 213.97C312.385 213.885 312.313 213.771 312.281 213.643C312.249 213.516 312.258 213.382 312.306 213.259C312.354 213.137 312.439 213.033 312.55 212.961C312.66 212.89 312.79 212.855 312.922 212.862L330.976 213.024C331.103 213.028 331.226 213.07 331.328 213.146C331.43 213.221 331.507 213.325 331.548 213.445C331.59 213.565 331.594 213.695 331.561 213.818C331.527 213.94 331.457 214.049 331.36 214.131Z" fill="#3FBDF1"/>
<path d="M322.666 135.885C320.755 135.884 318.886 136.449 317.296 137.509C315.706 138.57 314.466 140.078 313.733 141.844C313.001 143.609 312.808 145.552 313.18 147.427C313.552 149.301 314.472 151.024 315.822 152.376C317.173 153.728 318.895 154.649 320.769 155.023C322.643 155.396 324.587 155.205 326.353 154.474C328.119 153.743 329.628 152.505 330.69 150.915C331.752 149.327 332.319 147.458 332.319 145.547C332.32 144.279 332.071 143.023 331.586 141.851C331.101 140.679 330.39 139.614 329.493 138.717C328.598 137.82 327.533 137.108 326.362 136.622C325.19 136.136 323.934 135.886 322.666 135.885ZM322.666 152.889C322.292 152.889 321.932 152.741 321.667 152.475C321.402 152.21 321.254 151.851 321.254 151.477C321.254 151.102 321.402 150.742 321.667 150.478C321.932 150.213 322.292 150.064 322.666 150.064C323.041 150.064 323.4 150.213 323.665 150.478C323.93 150.742 324.079 151.102 324.079 151.477C324.079 151.851 323.93 152.21 323.665 152.475C323.4 152.741 323.041 152.889 322.666 152.889ZM324.441 142.024C324.144 144.121 323.891 146.323 323.268 148.355C323.21 148.465 323.123 148.558 323.016 148.623C322.909 148.687 322.786 148.721 322.662 148.721C322.537 148.721 322.415 148.687 322.308 148.623C322.201 148.558 322.114 148.465 322.056 148.355C321.614 146.825 321.276 145.266 321.044 143.69C320.848 142.547 320.172 140.686 320.822 139.578C321.384 138.58 322.976 138.462 323.874 138.981C325.021 139.596 324.576 140.952 324.441 142.007V142.024Z" fill="white"/>
<path d="M264.116 98.0191C268.907 98.0191 272.792 94.1348 272.792 89.3427C272.792 84.5511 268.907 80.6663 264.116 80.6663C259.324 80.6663 255.439 84.5511 255.439 89.3427C255.439 94.1348 259.324 98.0191 264.116 98.0191Z" fill="white"/>
<path d="M322.596 76.9123C324.198 76.9123 325.496 75.6144 325.496 74.0129C325.496 72.4119 324.198 71.1135 322.596 71.1135C320.995 71.1135 319.697 72.4119 319.697 74.0129C319.697 75.6144 320.995 76.9123 322.596 76.9123Z" fill="white"/>
<path d="M314.5 87.123C314.5 84.9757 315.353 82.9161 316.871 81.3979C318.39 79.8793 320.449 79.0265 322.596 79.0265C324.744 79.0265 326.803 79.8793 328.322 81.3979C329.84 82.9161 330.693 84.9757 330.693 87.123H314.5Z" fill="white"/>
<path d="M266.832 364.267C266.83 364.926 266.628 365.568 266.251 366.109C265.875 366.649 265.343 367.062 264.726 367.293L234.359 378.629C234.359 378.629 232.911 375.943 230.387 371.456L213.043 342.441C208.356 366.551 203.128 390.693 199.889 405.739L196.767 420.72L209.28 424.836C210.032 425.017 210.702 425.446 211.181 426.053C211.661 426.66 211.924 427.411 211.926 428.184C211.925 428.709 211.805 429.227 211.574 429.699C211.344 430.17 211.009 430.583 210.595 430.906C210.181 431.229 209.699 431.454 209.186 431.563C208.673 431.672 208.141 431.664 207.632 431.537L178.629 424.186V417.097L177.94 416.962L178.538 334.266L150.198 327.564C146.644 328.672 142.89 329.688 139.053 330.512C139.012 330.517 138.971 330.526 138.931 330.538C129.619 332.979 119.892 333.398 110.404 331.767C110.321 331.767 110.225 331.728 110.147 331.711C109.458 331.58 108.769 331.427 108.093 331.275C107.888 331.236 107.688 331.196 107.483 331.14C106.89 331.004 106.297 330.83 105.704 330.669C105.377 330.573 105.054 330.494 104.745 330.398C104.435 330.302 104.204 330.224 103.934 330.128C98.8272 328.525 94.111 325.874 90.0863 322.345C87.0003 319.754 84.3839 316.651 82.3517 313.172C81.4797 311.794 80.6643 310.347 79.9057 308.86C75.3015 299.769 74.3423 296.678 75.6809 296.595C72.7331 295.557 69.8777 294.274 67.144 292.758C67.144 292.758 61.1185 257.595 74.2595 222.205C74.0079 220.016 74.0533 217.803 74.3947 215.626C77.1633 195.77 92.4015 175.361 110.583 167.095C120.323 162.665 136.206 155.868 131.075 142.334C129.453 138.053 127.151 134.364 126.715 129.921C126.675 129.485 126.623 129.097 126.593 128.666C125.864 118.202 131.955 108.265 141.818 104.686C145.045 103.47 148.494 102.959 151.935 103.184C155.376 103.41 158.728 104.368 161.769 105.994C162.819 106.548 163.762 107.286 164.551 108.174C167.55 108.252 171.317 108.78 173.088 109.604C176.087 111.008 178.49 113.467 180.286 116.235C183.6 121.396 184.93 127.583 184.031 133.649C183.515 137.006 182.319 140.223 180.517 143.101C179.628 144.544 178.597 145.894 177.439 147.13C176.423 148.194 174.98 149.746 173.589 150.317C173.605 150.329 173.624 150.336 173.644 150.336C173.663 150.336 173.683 150.329 173.698 150.317L173.293 156.801C181.62 154.904 203.869 147.091 220.18 114.831C221.357 112.333 222.569 109.848 223.842 107.389C227.609 100.068 231.647 92.7871 236.997 86.4912C238.305 84.9652 240.24 83.5875 242.32 84.2502C244.143 84.8301 245.372 86.8662 244.103 88.5753L235.348 100.539L238.143 100.177C238.448 100.251 238.733 100.39 238.978 100.585C239.223 100.78 239.423 101.026 239.563 101.307C239.704 101.587 239.781 101.894 239.79 102.207C239.8 102.521 239.74 102.832 239.617 103.12L237.847 107.323L238.684 106.338C239.26 105.658 240.076 105.227 240.963 105.135C241.849 105.043 242.736 105.297 243.44 105.844C244.143 106.392 244.608 107.189 244.736 108.072C244.865 108.953 244.647 109.85 244.129 110.576L239.517 116.536C238.899 117.323 238.114 117.963 237.219 118.411L228.089 122.814C230.789 126.134 233.3 129.602 235.61 133.204C230.597 142.813 224.72 151.945 218.052 160.489C206.812 174.969 190.628 191.153 170.868 197.92C170.432 209.888 168.318 221.747 165.035 233.349C175.285 233.349 185.065 233.349 194.953 233.349L202.409 213.005C202.751 212.067 203.374 211.256 204.193 210.684C205.012 210.111 205.987 209.804 206.987 209.805H236.787C237.306 209.807 237.819 209.908 238.3 210.102C239.03 210.403 239.655 210.915 240.095 211.571C240.536 212.228 240.771 213 240.772 213.79C240.767 214.275 240.675 214.755 240.502 215.207L238.527 220.343H238.461H230.06L226.642 230.136L227.614 227.664H231.817C232.475 227.664 233.123 227.826 233.703 228.137C234.284 228.448 234.778 228.897 235.143 229.445C235.507 229.993 235.731 230.623 235.793 231.278C235.856 231.933 235.755 232.594 235.501 233.201L231.921 241.764C230.842 244.342 229.131 246.607 226.945 248.35C224.76 250.093 222.171 251.257 219.417 251.735L219.038 251.801L218.336 253.876L218.698 253.161C218.58 253.444 218.445 253.754 218.323 254.094H227.749C227.749 254.094 225.656 260.198 221.806 260.564C221.495 260.589 221.182 260.578 220.873 260.534H201.34C202.435 261.75 203.664 263.224 204.977 264.955C210.645 264.872 218.889 265.478 220.93 269.437C221.281 269.831 221.602 270.25 221.889 270.693C222.67 272.001 222.927 275.053 222.739 279.46C222.794 284.006 222.413 288.547 221.601 293.02C222.59 294.874 223.54 296.739 224.453 298.614C226.437 302.323 228.228 306.133 229.816 310.028C229.87 310.132 229.915 310.239 229.951 310.351C234.71 321.265 238.886 332.425 242.46 343.784L242.66 344.486C245.363 352.456 247.565 359.698 248.402 364.106L262.572 361.202C263.058 361.04 263.576 360.997 264.082 361.074C264.588 361.152 265.069 361.348 265.485 361.647C265.9 361.946 266.239 362.339 266.473 362.795C266.708 363.25 266.831 363.755 266.832 364.267Z" fill="white"/>
<path d="M217.935 254.617H227.361C226.974 255.68 226.482 256.703 225.892 257.669C224.727 259.491 222.931 261.397 220.555 261.074H191.958C190.846 261.081 189.763 260.719 188.88 260.045C188.684 259.139 188.74 258.196 189.041 257.32C200.59 255.55 212.424 253.644 217.717 252.55L218.715 252.376L217.935 254.617Z" fill="#3FBDF1"/>
<path d="M240.384 214.365C240.379 214.85 240.287 215.33 240.114 215.782L238.143 220.914H229.737L226.284 230.768L225.028 233.915H197.63L203.978 216.624C204.323 215.685 204.947 214.875 205.766 214.303C206.586 213.731 207.561 213.424 208.561 213.423H238.357C238.876 213.424 239.389 213.525 239.87 213.72C240.037 213.788 240.2 213.865 240.358 213.951C240.371 214.082 240.384 214.23 240.384 214.365Z" fill="#3FBDF1"/>
<path d="M240.389 214.361C240.383 214.845 240.291 215.325 240.118 215.778L238.143 220.91H229.741L232.663 212.983C232.985 212.104 233.607 211.367 234.419 210.9C235.231 210.434 236.181 210.269 237.103 210.433C238.025 210.598 238.86 211.081 239.46 211.799C240.061 212.517 240.389 213.424 240.389 214.361Z" fill="#3FBDF1"/>
<path d="M227.357 254.617C227.357 254.617 224.653 262.561 219.744 260.852C216.692 259.801 217.15 256.762 217.948 254.6L227.357 254.617Z" fill="#3FBDF1"/>
<path d="M220.45 220.911H206.747" stroke="white" stroke-width="4.65" stroke-linecap="round" stroke-linejoin="round"/>
<path d="M218.763 226.072H205.06" stroke="white" stroke-width="4.65" stroke-linecap="round" stroke-linejoin="round"/>
<path d="M229.497 310.556C227.124 304.817 224.356 299.251 221.213 293.896C222.486 287.151 223.354 275.336 220.594 269.973C218.554 266.009 210.318 265.408 204.632 265.491C200.242 259.687 196.693 256.697 196.693 256.697C196.693 256.697 170.262 260.978 164.228 261.013C158.194 261.048 158.198 264.392 158.198 264.392C158.198 264.392 153.995 277.075 149.243 283.375C144.49 289.676 131.707 297.327 113.286 300.275C94.8649 303.222 80.3766 299.59 77.0543 297.742C73.7319 295.893 73.6229 297.676 79.57 309.391C85.517 321.107 94.673 329.53 110.051 332.308C119.535 333.941 129.26 333.521 138.57 331.078C138.57 331.078 162.903 324.944 170.04 320.265C177.177 315.587 178.293 321.948 178.293 321.948L177.596 417.511L196.431 421.269L212.703 342.994L230.055 372.032L248.084 364.62C245.961 353.471 235.056 324.072 229.497 310.556Z" fill="#2E2E2E"/>
<path d="M180.273 182.778C179.887 185.432 178.758 187.923 177.016 189.963C175.678 191.673 173.976 193.063 172.032 194.031C171.576 194.251 171.102 194.432 170.615 194.572C170.615 193.059 170.589 191.52 170.506 190.02C170.197 184.4 169.063 178.549 165.484 174.228C163.762 172.164 161.588 170.523 159.131 169.432C159.201 168.394 159.284 167.365 159.349 166.328C159.537 164.553 159.528 162.763 159.323 160.991C159.092 159.915 158.961 158.821 158.931 157.721C158.97 156.696 158.822 152.764 159.633 151.913C160.986 152.477 162.435 152.774 163.901 152.785C167.184 152.759 169.791 150.745 171.549 148.168C172.195 147.957 172.867 147.834 173.545 147.802C175.534 148.098 169.6 153.448 171.535 152.842C170.275 153.23 169.355 155.122 168.762 156.204C167.89 157.878 167.385 159.849 168.239 161.619C169.076 163.311 170.829 164.767 172.072 166.158C173.747 167.916 175.314 169.776 176.763 171.725C179.056 174.917 180.731 178.836 180.273 182.778Z" fill="#3FBDF1"/>
<path d="M150.097 167.208C153.22 167.402 156.282 168.151 159.14 169.422C161.595 170.514 163.767 172.155 165.488 174.218C169.068 178.544 170.201 184.39 170.511 190.01C170.594 191.523 170.633 193.062 170.62 194.562C170.554 207.869 168.34 221.036 164.703 233.911C175.996 233.911 186.708 233.911 197.621 233.911H225.028L226.284 230.768L227.287 228.239H231.516C232.175 228.239 232.823 228.401 233.404 228.712C233.985 229.024 234.479 229.473 234.844 230.022C235.21 230.57 235.433 231.2 235.496 231.856C235.559 232.512 235.459 233.173 235.205 233.78L231.625 242.343C230.543 244.92 228.83 247.184 226.645 248.926C224.458 250.668 221.87 251.831 219.116 252.31L218.737 252.38L217.738 252.555C212.445 253.649 200.612 255.554 189.063 257.324C178.498 258.959 168.165 260.472 163.278 261.174C161.425 261.445 159.532 261.645 157.61 261.767C146.2 262.469 134.419 259.932 131.367 246.943C129.379 238.624 129.815 229.656 129.906 220.997" stroke="black" stroke-width="4.65" stroke-miterlimit="10"/>
<path d="M204.724 265.866C212.11 265.526 218.728 266.62 221.566 271.241C222.997 273.578 222.648 281.819 221.174 293.312" stroke="black" stroke-width="4.65" stroke-miterlimit="10"/>
<path d="M80.9913 311.833C81.0075 311.853 81.0206 311.875 81.0306 311.899C84.1916 318.343 89.7506 323.906 96.8617 327.8C121.919 341.508 159.606 325.445 173.162 318.762C173.703 318.495 174.303 318.371 174.905 318.401C175.507 318.432 176.091 318.615 176.603 318.934C177.115 319.253 177.536 319.698 177.828 320.225C178.12 320.752 178.273 321.346 178.272 321.949V424.744L207.27 432.091C207.719 432.206 208.186 432.23 208.645 432.159C209.103 432.089 209.542 431.927 209.936 431.682C210.33 431.438 210.671 431.117 210.937 430.737C211.203 430.358 211.39 429.928 211.486 429.475C211.677 428.594 211.515 427.673 211.035 426.91C210.555 426.147 209.795 425.603 208.918 425.394L196.409 421.274C196.989 417.21 205.474 380.05 212.685 342.999" stroke="black" stroke-width="4.65" stroke-miterlimit="10"/>
<path d="M196.135 256.213C203.547 262.491 208.87 272.144 213.854 280.345C225.996 300.327 235.078 322.075 242.133 344.328C244.265 351.051 246.227 357.844 248.08 364.637L262.241 361.729C263.044 361.468 263.919 361.531 264.676 361.906C265.433 362.281 266.014 362.937 266.294 363.735C266.573 364.532 266.53 365.408 266.172 366.173C265.815 366.94 265.173 367.535 264.382 367.833L234.014 379.169C234.014 379.169 225.129 362.57 212.711 342.981C194.513 314.24 160.884 269.942 152.007 279.39" stroke="black" stroke-width="4.65" stroke-miterlimit="10"/>
<path d="M169.643 157.86C169.643 157.86 199.422 155.797 219.836 115.385C219.836 115.385 226.288 119.836 235.283 133.762C235.283 133.762 210.047 184.979 170.511 198.495" stroke="black" stroke-width="4.65" stroke-miterlimit="10"/>
<path d="M166.949 110.606L168.693 113.256L169.743 114.87C170.81 117.353 171.746 119.89 172.551 122.469L172.604 122.652L174.601 130.282C174.604 130.291 174.604 130.3 174.601 130.308C175.272 131.413 176.197 132.341 177.299 133.016C177.56 133.157 177.803 133.328 178.023 133.526C179.222 134.729 176.061 135.078 175.407 135.475C175.118 135.673 174.882 135.938 174.717 136.247C174.553 136.556 174.465 136.9 174.461 137.249C170.707 152.871 173.122 148.769 171.509 152.244C172.909 151.058 176.388 147.286 176.388 147.286C176.824 147.003 177.234 146.153 177.517 145.73C178.418 144.348 179.192 142.889 179.833 141.37C181.822 136.831 182.281 131.769 181.141 126.947C179.34 119.452 175.141 111.953 166.949 110.606Z" fill="#3FBDF1"/>
<path d="M166.591 115.32C166.272 116.941 165.503 118.44 164.372 119.645C163.144 120.987 161.714 122.13 160.134 123.032C157.161 124.803 153.851 126.141 151.353 128.53C148.852 130.936 147.355 134.199 147.163 137.665C146.989 141.214 148.257 144.889 149.029 148.211C151.475 158.95 150.69 169.27 149.339 180.079C148.057 190.277 145.328 200.257 140.035 209.134C133.791 219.598 123.541 227.973 112.004 232.272C102.412 235.852 83.7731 239.026 76.723 229.068C75.5065 225.924 75.4934 222.327 75.9643 218.939C78.7329 199.066 93.9711 178.67 112.152 170.404C121.893 165.974 137.776 159.168 132.644 145.63C131.009 141.362 128.72 137.678 128.284 133.217C128.245 132.812 128.206 132.406 128.167 131.975C127.434 121.511 133.525 111.579 143.387 107.995C146.614 106.776 150.063 106.263 153.505 106.488C156.946 106.714 160.299 107.673 163.339 109.303C164.418 109.877 165.384 110.642 166.19 111.561C166.246 111.624 166.295 111.691 166.338 111.762C166.4 111.916 166.449 112.075 166.487 112.237C166.727 113.247 166.763 114.295 166.591 115.32Z" fill="#3FBDF1"/>
<path d="M170.642 194.114C175.909 192.897 180.53 189.126 181.851 183.615C183.081 178.509 181.136 173.268 178.123 169.161C175.329 165.368 169.508 162.185 169.966 156.805C170.114 155.061 170.977 153.535 172.102 152.183C172.508 151.713 172.926 151.277 173.384 150.832" stroke="black" stroke-width="4.65" stroke-miterlimit="10"/>
<path d="M159.781 151.791L159.537 169.592" stroke="black" stroke-width="4.65" stroke-miterlimit="10"/>
<path d="M130.743 142.866C129.117 138.593 126.819 134.909 126.383 130.453C126.34 130.043 126.3 129.633 126.27 129.197C125.533 118.733 131.628 108.805 141.486 105.217C144.714 104 148.164 103.487 151.606 103.712C155.048 103.938 158.401 104.897 161.442 106.525C162.519 107.101 163.482 107.868 164.285 108.788L164.49 109.036C165.202 109.907 165.719 110.919 166.007 112.006C166.295 113.093 166.347 114.228 166.16 115.337C165.842 116.953 165.078 118.449 163.953 119.653C162.721 120.998 161.289 122.145 159.707 123.054C156.733 124.824 153.428 126.154 150.921 128.543C148.419 130.955 146.925 134.228 146.744 137.699C146.566 141.248 147.839 144.919 148.597 148.25C151.043 158.989 150.263 169.305 148.911 180.109C147.63 190.307 144.905 200.291 139.603 209.168C133.359 219.632 123.113 228.012 111.572 232.307C101.793 235.952 82.6176 239.178 75.8814 228.509C73.6185 224.93 73.4703 220.4 74.0546 216.205C76.8232 196.337 92.0701 175.932 110.243 167.67C120 163.188 135.884 156.399 130.743 142.866Z" stroke="black" stroke-width="4.65" stroke-miterlimit="10"/>
<path d="M168.183 130.784C169.119 130.784 169.879 130.025 169.879 129.088C169.879 128.151 169.119 127.392 168.183 127.392C167.246 127.392 166.487 128.151 166.487 129.088C166.487 130.025 167.246 130.784 168.183 130.784Z" fill="black"/>
<path d="M167.786 123.621C167.786 123.621 162.044 126.211 163.862 131.247" stroke="black" stroke-width="4.65" stroke-miterlimit="10"/>
<path d="M173.092 150.915C174.531 150.392 176.066 148.735 177.112 147.649C178.269 146.414 179.303 145.07 180.199 143.634C182.722 139.597 184.04 134.923 183.997 130.163C183.955 125.403 182.554 120.754 179.959 116.763C178.163 113.99 175.769 111.531 172.769 110.136C170.269 108.958 167.471 108.563 164.743 109.002C166.267 110.247 167.635 111.673 168.815 113.249C170.592 115.581 171.836 118.275 172.46 121.141C172.556 121.642 172.639 122.139 172.726 122.645C173.162 125.339 173.406 128.069 174.727 130.275C175.401 131.388 176.331 132.326 177.439 133.009C177.7 133.149 177.943 133.32 178.163 133.519C179.362 134.722 176.201 135.066 175.547 135.463C173.868 136.444 174.492 139.261 174.269 140.891C174.001 142.795 173.432 144.643 172.582 146.368C172.281 146.98 171.939 147.571 171.557 148.138C169.813 150.723 167.197 152.746 163.91 152.764C162.447 152.751 161 152.454 159.65 151.892C157.334 150.95 155.263 149.494 153.594 147.632" stroke="black" stroke-width="4.65" stroke-miterlimit="10"/>
<path d="M169.935 141.894C169.935 141.894 165.981 144.148 164.267 138.959" stroke="black" stroke-width="4.65" stroke-miterlimit="10"/>
<path d="M227.034 123.729L236.888 118.968C237.788 118.534 238.575 117.895 239.185 117.102L243.785 111.133C244.315 110.408 244.542 109.506 244.418 108.617C244.293 107.728 243.828 106.923 243.12 106.371C242.412 105.819 241.517 105.565 240.624 105.662C239.732 105.759 238.912 106.2 238.339 106.891L237.498 107.872L239.272 103.673C239.393 103.385 239.45 103.074 239.44 102.761C239.429 102.448 239.352 102.141 239.212 101.862C239.073 101.582 238.875 101.335 238.632 101.138C238.389 100.942 238.106 100.799 237.803 100.721L235 101.092L243.763 89.1238C245.006 87.4278 243.798 85.3786 241.98 84.7987C239.887 84.1316 237.951 85.5094 236.652 87.0354C231.307 93.3312 227.256 100.612 223.494 107.937C222.229 110.399 221.01 112.881 219.836 115.384" stroke="black" stroke-width="4.65" stroke-linejoin="round"/>
<path d="M235.004 101.092C235.004 101.092 229.288 108.203 237.502 107.872" stroke="black" stroke-width="4.65" stroke-miterlimit="10"/>
<path d="M219.09 252.306C219.09 252.306 214.852 259.181 219.788 260.869C224.723 262.556 227.422 254.621 227.422 254.621H217.895" stroke="black" stroke-width="4.65" stroke-miterlimit="10"/>
<path d="M220.607 261.07H200.952" stroke="black" stroke-width="4.65" stroke-miterlimit="10"/>
<path d="M240.45 214.361C240.444 214.845 240.352 215.325 240.179 215.778L238.209 220.91H229.807L232.724 212.983C233.046 212.104 233.669 211.367 234.48 210.9C235.292 210.434 236.243 210.269 237.164 210.433C238.086 210.598 238.921 211.081 239.521 211.799C240.122 212.517 240.451 213.424 240.45 214.361Z" stroke="black" stroke-width="4.65" stroke-miterlimit="10"/>
<path d="M199.426 220.91L194.63 233.907L202.073 213.577C202.417 212.637 203.043 211.826 203.864 211.253C204.685 210.68 205.663 210.375 206.664 210.376H236.46" stroke="black" stroke-width="4.65" stroke-miterlimit="10"/>
<path d="M225.037 233.908L229.807 220.911" stroke="black" stroke-width="4.65" stroke-miterlimit="10"/>
<path d="M73.9412 222.75C60.7958 258.14 66.8214 293.312 66.8214 293.312C86.6768 304.36 114.829 303.401 134.994 293.691C142.127 290.247 149.818 285.058 152.931 277.454C155.216 271.887 157.592 266.363 159.55 260.716" stroke="black" stroke-width="4.65" stroke-miterlimit="10"/>
<path d="M62.6052 333.172H178.289" stroke="black" stroke-width="4.65" stroke-miterlimit="10"/>
<path d="M164.712 233.92L163.465 238.136" stroke="black" stroke-width="4.65" stroke-miterlimit="10"/>
<path d="M81.0305 311.899C81.0305 311.899 75.938 302.813 74.2812 296.766" stroke="black" stroke-width="4.65" stroke-miterlimit="10"/>
<path d="M106.166 55.1247V145.542H72.1929C73.3121 141.964 74.2495 138.346 75.0051 134.686C77.3246 123.42 78.0135 111.787 77.6516 100.037C76.9758 77.4914 86.1754 65.0784 98.3965 58.4732C100.882 57.1295 103.482 56.0089 106.166 55.1247Z" stroke="#CCDDE2" stroke-width="4.65" stroke-miterlimit="10"/>
<path d="M98.3964 58.4731V134.686H74.9919C77.3115 123.42 78.0003 111.787 77.6385 100.037C76.9757 77.4914 86.1753 65.0872 98.3964 58.4731Z" stroke="#CCDDE2" stroke-width="4.65" stroke-miterlimit="10"/>
</g>
</g>
<defs>
<clipPath id="clip0_44_113">
<rect width="436" height="436" fill="white"/>
</clipPath>
</defs>
</svg>
