<svg width="545" height="221" viewBox="0 0 545 221" fill="none" xmlns="http://www.w3.org/2000/svg">
<path d="M417.938 169.782V149.326L506.389 149.484C510.901 149.484 514.337 148.435 516.696 146.337C519.157 144.134 520.387 140.62 520.387 135.794C520.387 130.969 519.157 127.507 516.696 125.409C514.337 123.206 510.901 122.105 506.389 122.105H451.318C439.935 122.105 431.064 119.325 424.706 113.765C418.45 108.1 415.322 99.8132 415.322 88.9035C415.322 77.9938 418.45 69.7591 424.706 64.1994C431.064 58.5347 439.935 55.7024 451.318 55.7024H537.77V76.1581L453.933 76.0007C449.524 76.0007 446.088 77.0497 443.627 79.1477C441.166 81.1408 439.935 84.3928 439.935 88.9035C439.935 93.4143 441.166 96.7186 443.627 98.8167C446.088 100.81 449.524 101.806 453.933 101.806H509.004C520.387 101.806 529.207 104.691 535.463 110.461C541.821 116.125 545 124.57 545 135.794C545 146.914 541.821 155.358 535.463 161.128C529.207 166.897 520.387 169.782 509.004 169.782H417.938Z" fill="#0477A8"/>
<path d="M314.616 169.782C295.029 169.782 279.851 165.009 269.083 155.463C258.315 145.812 252.931 131.546 252.931 112.664C252.931 93.8863 258.315 79.7247 269.083 70.1787C279.851 60.5278 295.388 55.7024 315.693 55.7024H343.382C363.688 55.7024 379.224 60.5278 389.992 70.1787C400.76 79.7247 406.144 93.8863 406.144 112.664C406.144 131.546 400.76 145.812 389.992 155.463C379.224 165.009 363.944 169.782 344.151 169.782H314.616ZM317.385 76.1581C306.002 76.1581 297.131 78.2561 290.773 82.4521C284.415 86.6481 280.415 93.3093 278.774 102.436H380.301C378.66 93.3093 374.661 86.6481 368.303 82.4521C361.944 78.2561 353.074 76.1581 341.69 76.1581H317.385ZM317.847 149.326H341.69C353.176 149.326 362.047 147.228 368.303 143.032C374.661 138.836 378.66 132.123 380.301 122.891H278.774C280.415 132.123 284.415 138.836 290.773 143.032C297.131 147.228 306.156 149.326 317.847 149.326Z" fill="#0477A8"/>
<path d="M212.966 168.995V56.4891H237.578V168.995H212.966Z" fill="#0477A8"/>
<path d="M0 168.995V0.236023H27.2277L101.065 0C130.908 0 154.059 7.15949 170.519 21.4785C186.979 35.7974 195.209 56.8038 195.209 84.4977C195.209 112.192 186.979 133.198 170.519 147.517C154.059 161.836 130.908 168.995 101.065 168.995H0ZM98.5273 30.6835H36.9189V138.312H98.5273C117.91 138.312 132.6 133.985 142.599 125.33C152.598 116.676 157.598 103.065 157.598 84.4977C157.598 65.7729 152.598 52.162 142.599 43.665C132.6 35.0107 117.91 30.6835 98.5273 30.6835Z" fill="#0477A8"/>
<path d="M523.462 32.2767C520.37 32.2767 517.959 31.4978 516.228 29.94C514.497 28.3587 513.632 26.0456 513.632 23.0008C513.632 19.9325 514.497 17.6194 516.228 16.0616C517.959 14.4803 520.37 13.6896 523.462 13.6896H532.115C534.145 13.6896 535.691 14.1852 536.753 15.1765C537.837 16.1443 538.379 17.5368 538.379 19.3542C538.379 23.0598 536.291 24.9127 532.115 24.9127H519.032C519.516 27.1077 520.993 28.2052 523.462 28.2052H537.479V32.2767H523.462ZM523.462 17.761C521.085 17.761 519.62 18.7878 519.066 20.8412H531.872C532.334 20.8412 532.692 20.6996 532.945 20.4163C533.222 20.1331 533.361 19.7437 533.361 19.248C533.361 18.2567 532.865 17.761 531.872 17.761H523.462Z" fill="#0477A8"/>
<path d="M510.512 32.0997H505.494V6.78578H510.512V32.0997ZM509.647 32.0997H497.706C494.614 32.0997 492.203 31.3208 490.472 29.763C488.742 28.2052 487.876 25.9512 487.876 23.0008C487.876 20.0269 488.742 17.761 490.472 16.2033C492.203 14.6455 494.614 13.8666 497.706 13.8666H509.301V17.9381H497.706C496.206 17.9381 495.052 18.3629 494.245 19.2126C493.46 20.0387 493.068 21.3014 493.068 23.0008C493.068 24.6766 493.46 25.9394 494.245 26.7891C495.052 27.6152 496.206 28.0282 497.706 28.0282H509.647V32.0997Z" fill="#0477A8"/>
<path d="M451.456 32.0997V13.8666H466.996C469.027 13.8666 470.504 14.3858 471.427 15.4244C472.373 16.4393 472.846 17.7846 472.846 19.4604V32.0997H467.827V20.0623C467.827 18.6461 467.135 17.9381 465.75 17.9381H456.475V32.0997H451.456Z" fill="#0477A8"/>
<path d="M432.1 32.2767C429.008 32.2767 426.597 31.4978 424.866 29.94C423.135 28.3587 422.27 26.0456 422.27 23.0008C422.27 19.9325 423.135 17.6194 424.866 16.0616C426.597 14.4803 429.008 13.6896 432.1 13.6896H438.503C441.595 13.6896 444.006 14.4803 445.737 16.0616C447.467 17.6194 448.333 19.9325 448.333 23.0008C448.333 26.0456 447.467 28.3587 445.737 29.94C444.006 31.4978 441.595 32.2767 438.503 32.2767H432.1ZM432.1 28.2052H438.503C440.003 28.2052 441.145 27.7804 441.929 26.9307C442.737 26.081 443.141 24.771 443.141 23.0008C443.141 21.207 442.737 19.8853 441.929 19.0356C441.145 18.1859 440.003 17.761 438.503 17.761H432.1C430.6 17.761 429.446 18.1859 428.639 19.0356C427.854 19.8853 427.462 21.207 427.462 23.0008C427.462 24.771 427.854 26.081 428.639 26.9307C429.446 27.7804 430.6 28.2052 432.1 28.2052ZM437.811 11.5653L445.148 6.25472H439.022L432.792 11.5653H437.811Z" fill="#0477A8"/>
<path d="M414.14 32.0997V13.8666H419.159V32.0997H414.14ZM414.106 10.8572V6.85658H419.194V10.8572H414.106Z" fill="#0477A8"/>
<path d="M399.618 32.2767C396.526 32.2767 394.115 31.4978 392.384 29.94C390.653 28.3587 389.788 26.0456 389.788 23.0008C389.788 19.9325 390.653 17.6194 392.384 16.0616C394.115 14.4803 396.526 13.6896 399.618 13.6896H411.213V17.761H399.618C398.118 17.761 396.964 18.1859 396.157 19.0356C395.372 19.8853 394.98 21.207 394.98 23.0008C394.98 24.771 395.372 26.081 396.157 26.9307C396.964 27.7804 398.118 28.2052 399.618 28.2052H411.559V32.2767H399.618Z" fill="#0477A8"/>
<path d="M381.658 32.0997V13.8666H386.677V32.0997H381.658ZM381.624 10.8572V6.85658H386.712V10.8572H381.624Z" fill="#0477A8"/>
<path d="M377.846 32.0997H372.828V6.78578H377.846V32.0997ZM376.981 32.0997H365.04C361.948 32.0997 359.537 31.3208 357.806 29.763C356.076 28.2052 355.21 25.9512 355.21 23.0008C355.21 20.0269 356.076 17.761 357.806 16.2033C359.537 14.6455 361.948 13.8666 365.04 13.8666H376.635V17.9381H365.04C363.54 17.9381 362.387 18.3629 361.579 19.2126C360.794 20.0387 360.402 21.3014 360.402 23.0008C360.402 24.6766 360.794 25.9394 361.579 26.7891C362.387 27.6152 363.54 28.0282 365.04 28.0282H376.981V32.0997Z" fill="#0477A8"/>
<path d="M330.89 32.0997V13.8666H346.431C348.462 13.8666 349.938 14.3858 350.861 15.4244C351.807 16.4393 352.28 17.7846 352.28 19.4604V32.0997H347.262V20.0623C347.262 18.6461 346.569 17.9381 345.185 17.9381H335.909V32.0997H330.89Z" fill="#0477A8"/>
<path d="M312.853 32.2767C309.761 32.2767 307.349 31.4978 305.619 29.94C303.888 28.3587 303.023 26.0456 303.023 23.0008C303.023 19.9325 303.888 17.6194 305.619 16.0616C307.349 14.4803 309.761 13.6896 312.853 13.6896H321.505C323.536 13.6896 325.082 14.1852 326.143 15.1765C327.228 16.1443 327.77 17.5368 327.77 19.3542C327.77 23.0598 325.682 24.9127 321.505 24.9127H308.422C308.907 27.1077 310.384 28.2052 312.853 28.2052H326.87V32.2767H312.853ZM312.853 17.761C310.476 17.761 309.011 18.7878 308.457 20.8412H321.263C321.725 20.8412 322.082 20.6996 322.336 20.4163C322.613 20.1331 322.751 19.7437 322.751 19.248C322.751 18.2567 322.255 17.761 321.263 17.761H312.853Z" fill="#0477A8"/>
<path d="M277.959 32.0997V6.78578H282.978V32.0997H277.959ZM278.825 32.0997V28.0282H290.766C292.265 28.0282 293.408 27.6152 294.192 26.7891C295 25.9394 295.403 24.6766 295.403 23.0008C295.403 21.3014 295 20.0387 294.192 19.2126C293.408 18.3629 292.265 17.9381 290.766 17.9381H279.171V13.8666H290.766C293.857 13.8666 296.269 14.6455 297.999 16.2033C299.73 17.761 300.595 20.0269 300.595 23.0008C300.595 25.9512 299.73 28.2052 297.999 29.763C296.269 31.3208 293.857 32.0997 290.766 32.0997H278.825Z" fill="#0477A8"/>
<path d="M243.729 32.0997C241.86 32.0997 240.43 31.6158 239.438 30.6481C238.445 29.6804 237.949 28.2996 237.949 26.5058C237.949 24.7356 238.445 23.3667 239.438 22.399C240.43 21.4313 241.86 20.9474 243.729 20.9474H257.02V20.0977C257.02 18.6579 256.328 17.9381 254.943 17.9381H240.268V13.8666H256.259C258.358 13.8666 259.847 14.3622 260.724 15.3536C261.6 16.3213 262.039 17.6902 262.039 19.4604V32.0997H243.729ZM244.629 28.0282H257.02V25.0189H244.629C244.191 25.0189 243.845 25.1605 243.591 25.4437C243.36 25.7033 243.245 26.0574 243.245 26.5058C243.245 26.9543 243.36 27.3201 243.591 27.6034C243.845 27.8866 244.191 28.0282 244.629 28.0282Z" fill="#0477A8"/>
<path d="M212.399 32.0997V6.78578H217.937V27.4971H236.039V32.0997H212.399Z" fill="#0477A8"/>
<path d="M83.7603 215.571V198.601H97.6048C98.1125 198.601 98.574 198.735 98.9893 199.002C99.42 199.254 99.7585 199.592 100.005 200.017C100.251 200.442 100.374 200.914 100.374 201.433V206.414C100.374 206.933 100.251 207.405 100.005 207.83C99.7585 208.255 99.42 208.601 98.9893 208.868C98.574 209.12 98.1125 209.246 97.6048 209.246H85.6293V215.571H83.7603ZM86.5292 207.31H97.6048C97.851 207.31 98.0586 207.224 98.2279 207.051C98.4124 206.878 98.5047 206.665 98.5047 206.414V201.433C98.5047 201.182 98.4124 200.969 98.2279 200.796C98.0586 200.607 97.851 200.513 97.6048 200.513H86.5292C86.2831 200.513 86.0677 200.607 85.8831 200.796C85.7139 200.969 85.6293 201.182 85.6293 201.433V206.414C85.6293 206.665 85.7139 206.878 85.8831 207.051C86.0677 207.224 86.2831 207.31 86.5292 207.31Z" fill="black"/>
<path d="M111.634 215.571C111.127 215.571 110.658 215.445 110.227 215.194C109.812 214.926 109.473 214.58 109.212 214.155C108.965 213.715 108.842 213.235 108.842 212.715V207.759H120.564V204.738C120.564 204.486 120.472 204.274 120.287 204.1C120.118 203.912 119.91 203.817 119.664 203.817H108.842V201.882H119.664C120.187 201.882 120.656 202.016 121.072 202.283C121.503 202.535 121.841 202.881 122.087 203.322C122.349 203.746 122.479 204.218 122.479 204.738V215.571H111.634ZM111.634 213.636H120.564V209.694H110.734V212.715C110.734 212.967 110.819 213.188 110.988 213.376C111.173 213.549 111.388 213.636 111.634 213.636Z" fill="black"/>
<path d="M131.832 221V201.882H142.677C143.185 201.882 143.646 202.016 144.062 202.283C144.492 202.535 144.831 202.881 145.077 203.322C145.338 203.746 145.469 204.218 145.469 204.738V212.715C145.469 213.235 145.338 213.715 145.077 214.155C144.831 214.58 144.492 214.926 144.062 215.194C143.646 215.445 143.185 215.571 142.677 215.571H133.724V221H131.832ZM134.647 213.636H142.677C142.923 213.636 143.131 213.549 143.3 213.376C143.485 213.188 143.577 212.967 143.577 212.715V204.738C143.577 204.486 143.485 204.274 143.3 204.1C143.131 203.912 142.923 203.817 142.677 203.817H134.647C134.401 203.817 134.186 203.912 134.001 204.1C133.817 204.274 133.724 204.486 133.724 204.738V212.715C133.724 212.967 133.817 213.188 134.001 213.376C134.186 213.549 134.401 213.636 134.647 213.636Z" fill="black"/>
<path d="M156.8 215.571C156.292 215.571 155.823 215.445 155.392 215.194C154.977 214.926 154.639 214.58 154.377 214.155C154.131 213.715 154.008 213.235 154.008 212.715V204.738C154.008 204.218 154.131 203.746 154.377 203.322C154.639 202.881 154.977 202.535 155.392 202.283C155.823 202.016 156.292 201.882 156.8 201.882H164.83C165.353 201.882 165.822 202.016 166.237 202.283C166.668 202.535 167.007 202.881 167.253 203.322C167.514 203.746 167.645 204.218 167.645 204.738V209.694H155.9V212.715C155.9 212.967 155.985 213.188 156.154 213.376C156.339 213.549 156.554 213.636 156.8 213.636H167.645V215.571H156.8ZM155.9 207.759H165.73V204.738C165.73 204.486 165.637 204.274 165.453 204.1C165.284 203.912 165.076 203.817 164.83 203.817H156.8C156.554 203.817 156.339 203.912 156.154 204.1C155.985 204.274 155.9 204.486 155.9 204.738V207.759Z" fill="black"/>
<path d="M179.271 215.571C178.763 215.571 178.294 215.445 177.863 215.194C177.448 214.926 177.11 214.58 176.848 214.155C176.602 213.715 176.479 213.235 176.479 212.715V197.397H178.371V212.715C178.371 212.967 178.456 213.188 178.625 213.376C178.809 213.549 179.025 213.636 179.271 213.636H181.532V215.571H179.271Z" fill="black"/>
<path d="M192.795 215.571C192.287 215.571 191.818 215.445 191.387 215.194C190.972 214.926 190.634 214.58 190.372 214.155C190.126 213.715 190.003 213.235 190.003 212.715V204.738C190.003 204.218 190.126 203.746 190.372 203.322C190.634 202.881 190.972 202.535 191.387 202.283C191.818 202.016 192.287 201.882 192.795 201.882H200.825C201.348 201.882 201.817 202.016 202.232 202.283C202.663 202.535 203.002 202.881 203.248 203.322C203.509 203.746 203.64 204.218 203.64 204.738V209.694H191.895V212.715C191.895 212.967 191.98 213.188 192.149 213.376C192.334 213.549 192.549 213.636 192.795 213.636H203.64V215.571H192.795ZM191.895 207.759H201.725V204.738C201.725 204.486 201.632 204.274 201.448 204.1C201.279 203.912 201.071 203.817 200.825 203.817H192.795C192.549 203.817 192.334 203.912 192.149 204.1C191.98 204.274 191.895 204.486 191.895 204.738V207.759Z" fill="black"/>
<path d="M212.812 215.571V204.738C212.812 204.218 212.935 203.746 213.181 203.322C213.443 202.881 213.781 202.535 214.196 202.283C214.627 202.016 215.096 201.882 215.604 201.882H223.126V203.817H215.604C215.358 203.817 215.142 203.912 214.958 204.1C214.789 204.274 214.704 204.486 214.704 204.738V215.571H212.812Z" fill="black"/>
<path d="M231.865 215.571V201.882H233.757V215.571H231.865ZM231.726 200.466L232.534 197.185H234.357L233.572 200.466H231.726Z" fill="black"/>
<path d="M246.191 215.571C245.683 215.571 245.214 215.445 244.783 215.194C244.368 214.926 244.03 214.58 243.768 214.155C243.522 213.715 243.399 213.235 243.399 212.715V207.759H255.121V204.738C255.121 204.486 255.028 204.274 254.844 204.1C254.675 203.912 254.467 203.817 254.221 203.817H243.399V201.882H254.221C254.744 201.882 255.213 202.016 255.628 202.283C256.059 202.535 256.397 202.881 256.644 203.322C256.905 203.746 257.036 204.218 257.036 204.738V215.571H246.191ZM246.191 213.636H255.121V209.694H245.291V212.715C245.291 212.967 245.376 213.188 245.545 213.376C245.729 213.549 245.945 213.636 246.191 213.636Z" fill="black"/>
<path d="M282.321 215.571C281.813 215.571 281.344 215.445 280.913 215.194C280.498 214.926 280.159 214.58 279.898 214.155C279.652 213.715 279.529 213.235 279.529 212.715V204.738C279.529 204.218 279.652 203.746 279.898 203.322C280.159 202.881 280.498 202.535 280.913 202.283C281.344 202.016 281.813 201.882 282.321 201.882H290.35C290.873 201.882 291.343 202.016 291.758 202.283C292.189 202.535 292.527 202.881 292.773 203.322C293.035 203.746 293.166 204.218 293.166 204.738V209.694H281.421V212.715C281.421 212.967 281.505 213.188 281.675 213.376C281.859 213.549 282.074 213.636 282.321 213.636H293.166V215.571H282.321ZM281.421 207.759H291.25V204.738C291.25 204.486 291.158 204.274 290.973 204.1C290.804 203.912 290.597 203.817 290.35 203.817H282.321C282.074 203.817 281.859 203.912 281.675 204.1C281.505 204.274 281.421 204.486 281.421 204.738V207.759Z" fill="black"/>
<path d="M315.659 215.571V201.882H317.551V215.571H315.659ZM315.659 199.333V197.397H317.551V199.333H315.659Z" fill="black"/>
<path d="M327.089 215.571V201.882H337.934C338.442 201.882 338.903 202.016 339.319 202.283C339.75 202.535 340.088 202.881 340.334 203.322C340.596 203.746 340.726 204.218 340.726 204.738V215.571H338.834V204.738C338.834 204.486 338.742 204.274 338.557 204.1C338.388 203.912 338.18 203.817 337.934 203.817H329.905C329.658 203.817 329.443 203.912 329.258 204.1C329.074 204.274 328.982 204.486 328.982 204.738V215.571H327.089Z" fill="black"/>
<path d="M352.847 215.571C352.324 215.571 351.847 215.445 351.416 215.194C351.001 214.926 350.67 214.58 350.424 214.155C350.178 213.715 350.055 213.235 350.055 212.715V197.397H351.947V201.882H357.739V203.817H351.947V212.715C351.947 212.967 352.032 213.188 352.201 213.376C352.386 213.549 352.601 213.636 352.847 213.636H357.739V215.571H352.847Z" fill="black"/>
<path d="M369.187 215.571C368.68 215.571 368.21 215.445 367.78 215.194C367.364 214.926 367.026 214.58 366.764 214.155C366.518 213.715 366.395 213.235 366.395 212.715V204.738C366.395 204.218 366.518 203.746 366.764 203.322C367.026 202.881 367.364 202.535 367.78 202.283C368.21 202.016 368.68 201.882 369.187 201.882H377.217C377.74 201.882 378.209 202.016 378.625 202.283C379.055 202.535 379.394 202.881 379.64 203.322C379.901 203.746 380.032 204.218 380.032 204.738V209.694H368.287V212.715C368.287 212.967 368.372 213.188 368.541 213.376C368.726 213.549 368.941 213.636 369.187 213.636H380.032V215.571H369.187ZM368.287 207.759H378.117V204.738C378.117 204.486 378.025 204.274 377.84 204.1C377.671 203.912 377.463 203.817 377.217 203.817H369.187C368.941 203.817 368.726 203.912 368.541 204.1C368.372 204.274 368.287 204.486 368.287 204.738V207.759Z" fill="black"/>
<path d="M389.204 215.571V204.738C389.204 204.218 389.327 203.746 389.573 203.322C389.835 202.881 390.173 202.535 390.589 202.283C391.019 202.016 391.489 201.882 391.996 201.882H399.518V203.817H391.996C391.75 203.817 391.535 203.912 391.35 204.1C391.181 204.274 391.096 204.486 391.096 204.738V215.571H389.204Z" fill="black"/>
<path d="M407.98 215.571V201.882H418.825C419.333 201.882 419.794 202.016 420.21 202.283C420.64 202.535 420.979 202.881 421.225 203.322C421.486 203.746 421.617 204.218 421.617 204.738V215.571H419.725V204.738C419.725 204.486 419.633 204.274 419.448 204.1C419.279 203.912 419.071 203.817 418.825 203.817H410.795C410.549 203.817 410.334 203.912 410.149 204.1C409.965 204.274 409.872 204.486 409.872 204.738V215.571H407.98Z" fill="black"/>
<path d="M433.692 215.571C433.184 215.571 432.715 215.445 432.284 215.194C431.869 214.926 431.53 214.58 431.269 214.155C431.023 213.715 430.9 213.235 430.9 212.715V204.738C430.9 204.218 431.023 203.746 431.269 203.322C431.53 202.881 431.869 202.535 432.284 202.283C432.715 202.016 433.184 201.882 433.692 201.882H441.721C442.245 201.882 442.714 202.016 443.129 202.283C443.56 202.535 443.898 202.881 444.144 203.322C444.406 203.746 444.537 204.218 444.537 204.738V209.694H432.792V212.715C432.792 212.967 432.876 213.188 433.046 213.376C433.23 213.549 433.445 213.636 433.692 213.636H444.537V215.571H433.692ZM432.792 207.759H442.621V204.738C442.621 204.486 442.529 204.274 442.344 204.1C442.175 203.912 441.968 203.817 441.721 203.817H433.692C433.445 203.817 433.23 203.912 433.046 204.1C432.876 204.274 432.792 204.486 432.792 204.738V207.759Z" fill="black"/>
<path d="M456.636 215.571C456.113 215.571 455.636 215.445 455.206 215.194C454.79 214.926 454.46 214.58 454.214 214.155C453.967 213.715 453.844 213.235 453.844 212.715V197.397H455.736V201.882H461.528V203.817H455.736V212.715C455.736 212.967 455.821 213.188 455.99 213.376C456.175 213.549 456.39 213.636 456.636 213.636H461.528V215.571H456.636Z" fill="black"/>
</svg>
